<svg xmlns="http://www.w3.org/2000/svg" width="60" height="60" viewBox="0 0 60 60">
  <path fill="#FFF" fill-rule="evenodd" d="M15.3400625 1.1040643l-14.7563957.301325C-.2116419 4.3215721.5788686 2.8453179.5812677 5.8901295L.5782688 11.402114C.457713 12.9944916.0354676 13.805568.0360674 15.9344946c.0005998.7169867-.1589418 2.3605776.188331 2.9221378.6141751.9938961.5991806 1.8359387.8576859 3.2716987.2303156 1.2755695.480424 1.1415811-.0989638 2.1039154l-.2699011 2.4373977 1.2607383 1.2249516.0095964 2.1408367c-.7509249.683043.0893673.1965163-1.4982513 1.3333333l.142148 6.4671729 1.5630276 1.1260979-.3268803 5.5131755C.2154017 45.6483549.5698719 47.0704183.6220528 48.531785l.2015262 5.4976924-.3616676 2.8167337c3.6934473.9230311 2.8837439.6371892 7.1055977.6365937 3.7312335 0 3.2490101.0381123 6.9370594-.4067292l.0953651.6240882c.5709909-.0363258 1.1617745-.0678875 1.7249682-.1220783 1.5690254-.151258.942255-.3316957 1.482657-.52583.390457-.140539 4.595517.8289415 5.2792666.9748399.376662-.4186392.1847323-.2501116.7107397-.5871669.2842959.5960995 1.5006504 1.9645676 1.996069 2.5600715l1.5228423-1.4190859 2.6642242 1.0266488.7803142-.6520768c.3046885.3573023.4900206.8057168 1.0334216.8765818.7905105.1030222.920063-1.198154 2.664824-1.2309067l10.1200937-.3352687c.1295526-.1244603.2069242-.1977073.3460733-.3334822l.5170106-.4174483c.6645566.3977967.9482527.7801102 1.860519.7205598 2.790778-.1840107 1.330312.6705375 4.931993.4781897.620773-.0327527.466629-.1846062 1.014829-.3763585l1.168972-.1792467c-.254307-.6764925-.416848-.5812119-.922463-1.0867947l6.410453 1.2874795c-.085769-7.4914396-.069575-16.6318297.02639-24.3394372l-1.723769.1280333c.062377-.5008188.813902-.3126395.872681-1.3184457.074372-1.2672324.061177-5.6078607-.124755-6.5356558-.095365-.4740211-1.311119-1.8561858-1.6362-2.2861397.386858-1.0439184.425244-.9748399 1.141382-1.825815-.060578-.5597738-.19253-.7098408-.434841-1.3476255l1.879112-.610987c.020392-1.0730981.142148-5.3774006.071374-6.7381272l-.761122-7.3497097.581787-1.8371296.025191-1.888343c-1.623006-.9289862-1.411283-1.0314129-2.537671-1.0236713-1.011229.0065505-2.37333-.0464493-3.342575-.2667858-1.243945-.2828644-.910467-.4835492-2.274368.906357L51.050384.6872116C49.102897.5436951 42.856785.0017865 41.3711291.0017865c-1.8989046 0-1.6236054.14173-2.2647706 2.2825666l-2.7254019.2781004-.3628671-1.1707608-2.4698954-.0273932.262104-.2864374C34.2931213.6211106 34.1233834.8051213 34.501245 0l-9.9323624.0005955c-.3280798.60265-.9284599 1.061188-1.6362008 1.2946256-.9890377.3263361-.4990172-.1994938-1.1239883.3567068-.4678287.4168528-.548799.3912461-1.2865288.3763585-.9794413-.0196516-1.9834736-.0512133-2.9617154-.0911121-.4510348-.0184606-.9470531.0262022-1.3812941-.0750335-.6681553-.1566175-.4738264-.3287181-.8390927-.7580765M6.7176204 11.6474617c.9674456-.5395266 1.482657-.1298199 3.1146593-1.3035582.4378396-.3144261 1.444271-.2834598 2.0548474-.2000893.633368.0863481 2.0914341 1.2934346 2.7601891 1.7007593.3868584.2358195 2.1274209 1.5554563 2.411117 2.0122078l.8594852 1.3774006c1.1839664.0577639.9764424-.0101235 2.4704952 1.0754802l14.3029618 9.3714455c3.0756736 2.1217806 6.6641594 4.2900105 9.7572266 6.4278696l8.815571 5.7293435c-.254306.5430996-.551797 2.4171505-.718536 3.1662945-.763521 3.4408218-1.723769 4.8986154-3.2784 8.2078308-2.234182.0875391-3.996936.0702695-6.1795366.0357303-.707141-.0113146-.5326049.1357749-.9194633-.2358196-1.2775321-1.2297156-3.6016809-3.927944-4.8942075-5.1725473-.4462366-.4299538-.8480894-.8337055-1.2901276-1.3011761-3.5734912-3.780259-1.8821107-2.64106-2.5808548-3.5825517l-7.1901667-6.7482507c-1.6505955-1.5929731-3.1380507-3.3092154-4.8444258-5.1040643-.4378396-.4609201-.657959-.895638-1.1149916-1.3142772l-.1265537-.1131458c-.1217554-.1191008-.0749725-.069674-.188331-.1988983l-2.0890349-2.3570046c-.3676654-.3382463-.3328781-.3269317-.6021795-.6306387l-1.878512-1.9240733c-.4132487-.4305493-.7353307-.8759863-1.1281868-1.3392883l-1.7957424-1.8907251c-.2669022-.2697632-.4606313-.3501563-.7239348-.6223016-.8534875-.8825368-1.5714245-1.7275569-2.4339087-2.6089028-.6903471-.7056721-2.3709316-2.0622301-2.5694589-2.4570492m37.8617337-1.4625577c.9482527.3269316 3.2472109 1.6316808 3.8110039 2.3331844.474427.5907399.337077.6449308.161341 1.4959059l-.935057 7.2651482c-1.294926.0470448-.9212629-.1059997-1.723769-.6407623-1.3471066-.8974244-5.9672146-4.2858419-7.4504713-5.4732767l-2.8531551-2.2766116c.2105229-.1953253-.0725734-.0928986.4030524-.2161679l4.2230533-.9444693c2.1993946-.5478636 2.5406696-.6913801 4.3640018-1.5429507m-33.126468 25.6477594c.5883846.3650439.966846.7247283 1.5366373 1.1802888l4.6099117 4.2453476c.9620476.9093346 3.4241459 3.3776984 4.3711991 4.4716392.6453636.7461664.9260608.8265594 1.4010869 1.5626023-.1739363.0637189-2.3283473.5550097-3.5806887.983177-2.6084447.8902784-4.9841746 2.3182969-7.2555427 1.5536698-.3394757-.1143367-1.8857094-1.581063-2.5946498-2.0771177-.4198462-.292988-.8192999-.5698973-1.3021231-.905166-1.3824937-.9587614-1.7789485-.2983475.0575789-4.5466727.4804241-1.1112103.8870751-2.1116569 1.3441077-3.2002382.3994537-.9510198.9494523-2.4892065 1.4124827-3.2675301"/>
</svg>
