<svg xmlns="http://www.w3.org/2000/svg" width="56" height="60" viewBox="0 0 56 60">
  <path fill="#FFF" fill-rule="evenodd" d="M8.5940339 52.0998919C3.2995546 47.1334054 0 40.160973 0 32.4323243c0-7.7286486 3.2995546-14.7010811 8.5940339-19.6675675v3.8918918c-3.6649396 4.2778379-5.8755469 9.778919-5.8755469 15.7756757 0 .0794595.0055445.1572973.006099.2362162 1.1965113 1.5583784 3.1060501 3.3875676 5.8694479 4.2913514v15.14zm47.1285731-1.2890811L47.960254 60H5.8217649l4.9900842-6.4864865V5.9459459L6.3762187 0h17.7425215v50.8108108H55.722607zM26.3367218 7.844973V5.1871351c.5505726-.0313513 1.1044719-.0518919 1.6633614-.0518919C43.4637996 5.1352432 56 17.3563243 56 32.4325405c0 6.0735136-2.037063 11.6816217-5.478004 16.2162163H26.3367218v-1.2313514c1.1488282-.9594595 2.5332994-1.807027 4.1584035-2.2821622 0 0 2.2178152 3.2432433 6.6534455 2.1621622C41.5842012 46.2163243 43.2475626 41.892 43.2475626 41.892s3.4054554-.4740541 7.9375604.3545946c1.12166-2.5091892 1.824153-5.2335135 2.027638-8.0902703-10.0450397-2.9464865-19.5356254.4789189-26.8760392 5.0589189v-7.7989189c10.3810384-8.6037838 6.3762187-18.1729729 6.3762187-18.1729729s2.4041116-1.9470271 5.8450519-3.1972973c-3.2152776-1.4470271-6.7898412-2.2605406-10.5579092-2.2605406-.5594439 0-1.1133433.0243243-1.6633614.0594595z"/>
</svg>
