<svg xmlns="http://www.w3.org/2000/svg" width="35" height="35" viewBox="0 0 60 60">
  <path fill="#FFF" fill-rule="evenodd" d="M30.9175556 56.6435c-.0005556-.1605556-.0172223-.3127778-.0577778-.4416667-.5961111-.9783333-.0805556-1.8111111-.8666667-1.8111111-1.7233333-2.3094444-1.2411111-5.4016666-5.3005555-9.5777778-.2422223-.3511111-.66-2.3683333 0-2.7294444.3694444-.1194444.7877777.3372222 1.2855555.3411111C27.027 41.4018333 27.6153333 36.3168333 27.107 34.9979444c-.1716667-.4444444-.715-.6855555-1.0555556-.8644444-.7322222-.385-.1411111-1.8188889.4477778-1.6222222.71.2366666 2.0661111 1.1283333 2.4705556 1.3061111 1.4666666.6433333 2.4044444 1.3844444 3.2438889 1.2194444.6066666-.1194444 3.1477777-2.4555555 3.3505555-3.5233333.1294445-.68.0144445-1.5933333.0066667-1.6438889.2416667-.045.6588889-.1522222.9483333-.215.035-.0066667.0616667-.0261111.0805556-.0566667.0183333-.03.0233333-.0627777.0138889-.0972222-.3783334-1.4288889-.4244445-1.6022222-.4272223-3.215 1.1994445-.8038889.7894445-.6911111 1.4694445-1.6533333.1527778-.0288889.2616667-.0755556.3566667-.1233333H43.807V23.8085h.655v.2333333h1.53v-.3444444h3.4722222v.3438889h.5783334v-.1511111h1.64v-.9644445h-1.64v-.1516666h-.5783334V23.1185H45.992v-1.1572222h-1.1166667v-2.0272222h-.4877777v2.4927777H43.807v-.6811111H30.6897778v-.3833333h-.8844445v-1.21h-.3388889v.7h-.3383333v.8933333h-.7094444c-.5933334.2388889-1.5405556.5783334-2.4288889.4033334-.0238889-.055-.0427778-.2022223.0011111-.22.3544444-.1438889.2172222-.2372223.145-.4716667-.0805556-.2616667-.1372222-.665-.1311111-1.1022222.3338889-.2377778.8727778-.4833334 1.3116666-.5772223 1.0738889-1.2661111 0-3.1938888-.2094444-4.2777777-.3205556-.2394445-.5694444-.3255556-.9972222-.4983334-3.805-2.735-9.2411111-.1411111-7.6366667 4.6444445.1366667.4072222.3655556.82.3411111 1.3122222-.9644444.8444444-.6316666.0555556-1.1805555-.1311111-1.6383334-.5561111-3.0438889.7561111-3.7766667 2.0555555-2.1727778 3.8472223-1.045 6.9733334-1.6816667 7.785-.2311111.9238889-2.1355555.1933334-2.54555552.735-.01833334.0238889-1.39833334 5.9061112.09277778 6.25.48555554.1122223 1.09666664.2272223 1.39388884.2683334.1766667.025.3222223.4788889.3333334.6916666-.1844445.0833334-1.1444445.1655556-1.56222224.3216667-.67722223.2522222.21444444 5.2433333.21444444 6.1405556-.1538889.095-.35166667.0155555-.525.105-.1788889.0922222-.40777778.5883333-.58722222 1.2122222-3.5388889-4.5261111-5.6561111-10.215-5.6561111-16.3922222C3.33366668 15.2957222 15.2958889 3.3335 30.0003333 3.3335 44.7042222 3.3335 56.667 15.2957222 56.667 30.0001667c0 14.3961111-11.4694444 26.1572222-25.7494444 26.6433333m-15.7683334-4.5061111l1.7388889-1.6777778c.4088889-.6116667.8716667-.7655555.9027778-.7661111.76 1.3477778.4138889 1.0522222 2.1522222 1.8111111.2016667.0877778 2.29 3.3833333 2.5455556 3.7783333.0911111.1416667.1722222.2611112.2511111.3711112-2.7322222-.7744445-5.2894445-1.9677778-7.5905556-3.5166667M30.0003333.00016667C13.4314444.00016667.00033333 13.4312778.00033333 30.0001667c0 16.5683333 13.43111107 30 29.99999997 30 16.5683334 0 30-13.4316667 30-30 0-16.5688889-13.4316666-30.00000003-30-30.00000003"/>
</svg>
